<svg xmlns="http://www.w3.org/2000/svg" xmlns:xlink="http://www.w3.org/1999/xlink" width="204.914" height="79.163" viewBox="0 0 204.914 79.163">
  <defs>
    <linearGradient id="linear-gradient" x1="-0.386" y1="1.613" x2="0.967" y2="0.024" gradientUnits="objectBoundingBox">
      <stop offset="0" stop-color="#141963"/>
      <stop offset="1" stop-color="#a871dc"/>
    </linearGradient>
    <linearGradient id="linear-gradient-2" x1="0.5" x2="0.5" y2="1" gradientUnits="objectBoundingBox">
      <stop offset="0" stop-color="#25e6fd"/>
      <stop offset="1" stop-color="#6fa7fe"/>
    </linearGradient>
    <linearGradient id="linear-gradient-3" x1="0.806" y1="0.128" x2="0.5" y2="1" gradientUnits="objectBoundingBox">
      <stop offset="0" stop-color="#fff"/>
      <stop offset="1" stop-color="#dff9ff"/>
    </linearGradient>
  </defs>
  <g id="logo-footer" transform="translate(-154.328 -32.92)">
    <rect id="Rectangle_932" data-name="Rectangle 932" width="79.163" height="79.163" rx="39.582" transform="translate(154.328 32.92)" fill="url(#linear-gradient)"/>
    <g id="favicon" transform="translate(156.872 34.168)">
      <g id="Group_1" data-name="Group 1" transform="translate(17 23.06)">
        <path id="Path_150" data-name="Path 150" d="M5.847,0h8.77a5.847,5.847,0,0,1,5.847,5.847v8.77a5.847,5.847,0,0,1-5.847,5.847H5.847A5.847,5.847,0,0,1,0,14.618V5.847A5.847,5.847,0,0,1,5.847,0Z" transform="translate(29.714 1.096) rotate(45)" fill="url(#linear-gradient-2)"/>
        <circle id="Ellipse_122" data-name="Ellipse 122" cx="15.415" cy="15.415" r="15.415" transform="translate(0 0)" fill="url(#linear-gradient-3)"/>
      </g>
    </g>
    <path id="kokit" d="M27.82,0h-9.6L10.015-10.141V0H2.373V-29.1h7.643v17.07l7.5-9.343h9.07L18.225-11.4ZM51.986-10.708A11.533,11.533,0,0,1,50.6-5.018a9.8,9.8,0,0,1-4.147,3.947A14.336,14.336,0,0,1,39.725.378,14.336,14.336,0,0,1,33-1.071a9.733,9.733,0,0,1-4.136-3.947,11.6,11.6,0,0,1-1.375-5.69A12.033,12.033,0,0,1,28.25-15.1a9.768,9.768,0,0,1,2.331-3.5,10.513,10.513,0,0,1,3.853-2.341,15.676,15.676,0,0,1,5.291-.819,15.838,15.838,0,0,1,5.344.829A10.4,10.4,0,0,1,48.91-18.6a9.8,9.8,0,0,1,2.3,3.485A12.054,12.054,0,0,1,51.986-10.708Zm-7.958,0a6.4,6.4,0,0,0-1.1-3.979,3.789,3.789,0,0,0-3.2-1.438,3.766,3.766,0,0,0-3.181,1.438,6.4,6.4,0,0,0-1.1,3.979,6.459,6.459,0,0,0,1.113,3.989,3.74,3.74,0,0,0,3.17,1.47,3.767,3.767,0,0,0,3.2-1.459A6.5,6.5,0,0,0,44.029-10.708ZM81.318,0h-9.6L63.513-10.141V0H55.871V-29.1h7.643v17.07l7.5-9.343h9.07L71.723-11.4Zm9.763-26.308a3.024,3.024,0,0,1-.945,2.247,3.1,3.1,0,0,1-2.247.924,3.144,3.144,0,0,1-1.606-.42A3.1,3.1,0,0,1,85.139-24.7a3.144,3.144,0,0,1-.42-1.606,3.1,3.1,0,0,1,.924-2.247A3.024,3.024,0,0,1,87.89-29.5a3.069,3.069,0,0,1,2.247.945A3.069,3.069,0,0,1,91.081-26.308ZM91.69,0H84.11V-21.374h7.58Zm22.067-1.239a17.829,17.829,0,0,1-3.244,1.092,16.086,16.086,0,0,1-3.958.525q-8.167,0-8.167-7.979v-8.524H94.965v-1.323l10.141-10.33h.861v6.4h7.223v5.249h-7.223V-9.28a10.217,10.217,0,0,0,.147,1.932,1.968,1.968,0,0,0,.829,1.228,3.534,3.534,0,0,0,2.068.493,11.186,11.186,0,0,0,4.745-1.512Z" transform="translate(245.485 88.06)" fill="#102443"/>
  </g>
</svg>
