<svg xmlns="http://www.w3.org/2000/svg" xmlns:xlink="http://www.w3.org/1999/xlink" width="166.758" height="40.726" viewBox="0 0 166.758 40.726">
  <defs>
    <linearGradient id="linear-gradient" x1="0.5" x2="0.5" y2="1" gradientUnits="objectBoundingBox">
      <stop offset="0" stop-color="#25e6fd"/>
      <stop offset="1" stop-color="#6fa7fe"/>
    </linearGradient>
    <linearGradient id="linear-gradient-2" x1="0.806" y1="0.128" x2="0.5" y2="1" gradientUnits="objectBoundingBox">
      <stop offset="0" stop-color="#fff"/>
      <stop offset="1" stop-color="#dff9ff"/>
    </linearGradient>
  </defs>
  <g id="logo-index" transform="translate(-166.691 -52.333)">
    <g id="favicon" transform="translate(149.691 29.273)">
      <g id="Group_1" data-name="Group 1" transform="translate(17 23.06)">
        <path id="Path_150" data-name="Path 150" d="M7.724,0H19.309a7.724,7.724,0,0,1,7.724,7.724V19.309a7.724,7.724,0,0,1-7.724,7.724H7.724A7.724,7.724,0,0,1,0,19.309V7.724A7.724,7.724,0,0,1,7.724,0Z" transform="translate(39.251 1.448) rotate(45)" fill="url(#linear-gradient)"/>
        <circle id="Ellipse_122" data-name="Ellipse 122" cx="20.363" cy="20.363" r="20.363" transform="translate(0 0)" fill="url(#linear-gradient-2)"/>
      </g>
    </g>
    <path id="kokit" d="M15.781-10.75,23.306,0h-8L9.2-9.159V0H2.064V-30.1H9.2v17.587L14.749-21.5H23ZM34.443.6a11.124,11.124,0,0,1-8.127-3.268,10.837,10.837,0,0,1-3.354-8.084,10.877,10.877,0,0,1,3.354-8.041A11.234,11.234,0,0,1,34.443-22.1a11.049,11.049,0,0,1,8.127,3.311,10.877,10.877,0,0,1,3.354,8.041A10.837,10.837,0,0,1,42.57-2.666,11.032,11.032,0,0,1,34.443.6Zm0-6.88a4.185,4.185,0,0,0,3.118-1.247,4.406,4.406,0,0,0,1.226-3.225,4.406,4.406,0,0,0-1.226-3.225,4.185,4.185,0,0,0-3.118-1.247,4.1,4.1,0,0,0-3.075,1.268,4.424,4.424,0,0,0-1.225,3.2,4.424,4.424,0,0,0,1.225,3.2,4.1,4.1,0,0,0,3.075,1.278ZM62.78-10.75,70.305,0h-8L56.2-9.159V0H49.063V-30.1H56.2v17.587L61.748-21.5H70ZM78.819-24.467a3.931,3.931,0,0,1-2.881,1.2,4.074,4.074,0,0,1-2.924-1.2,4.074,4.074,0,0,1-1.2-2.924,3.931,3.931,0,0,1,1.2-2.881,4.074,4.074,0,0,1,2.924-1.2,3.931,3.931,0,0,1,2.881,1.2,3.865,3.865,0,0,1,1.247,2.881A4,4,0,0,1,78.819-24.467ZM79.507,0H72.369V-21.5h7.138ZM96.965-21.5v6.837H92.493v6.235a1.639,1.639,0,0,0,.968,1.741,9.89,9.89,0,0,0,3.5.237V0Q90.6.774,87.935-1.161q-2.58-2.021-2.58-7.1v-6.407H82.13V-21.5h3.225v-3.87l7.138-2.15v6.02Z" transform="translate(236.485 88.06)" fill="#fff"/>
  </g>
</svg>
